<mxfile host="65bd71144e">
    <diagram id="mjatOwK4l7Ppw96cYCik" name="Page-1">
        <mxGraphModel dx="2606" dy="1139" grid="1" gridSize="10" guides="1" tooltips="1" connect="1" arrows="1" fold="1" page="1" pageScale="1" pageWidth="850" pageHeight="1100" math="0" shadow="0">
            <root>
                <mxCell id="0"/>
                <mxCell id="1" parent="0"/>
                <mxCell id="14" value="" style="rounded=0;whiteSpace=wrap;rotation=90;strokeColor=none;html=1;fontColor=default;" parent="1" vertex="1">
                    <mxGeometry x="61.25" y="133.75" width="727.5" height="850" as="geometry"/>
                </mxCell>
                <mxCell id="13" value="" style="aspect=fixed;points=[];align=center;image;fontSize=12;image=img/lib/azure2/databases/Data_Factory.svg;html=1;fontColor=default;" parent="1" vertex="1">
                    <mxGeometry x="138.5" y="446" width="68" height="68" as="geometry"/>
                </mxCell>
                <mxCell id="18" value="" style="rounded=1;whiteSpace=wrap;strokeWidth=4;html=1;fontColor=default;" parent="1" vertex="1">
                    <mxGeometry x="414.5" y="361" width="250" height="130" as="geometry"/>
                </mxCell>
                <mxCell id="12" value="" style="aspect=fixed;points=[];align=center;image;fontSize=12;image=img/lib/azure2/networking/Firewalls.svg;html=1;fontColor=default;" parent="1" vertex="1">
                    <mxGeometry x="399.90999999999997" y="341" width="71" height="60" as="geometry"/>
                </mxCell>
                <mxCell id="17" value="" style="edgeStyle=none;flowAnimation=1;html=1;fontColor=default;" parent="1" source="8" target="44" edge="1">
                    <mxGeometry relative="1" as="geometry">
                        <mxPoint x="539.7300613496933" y="481" as="targetPoint"/>
                    </mxGeometry>
                </mxCell>
                <mxCell id="20" value="" style="rounded=1;whiteSpace=wrap;strokeWidth=4;html=1;fontColor=default;" parent="1" vertex="1">
                    <mxGeometry x="111.99999999999989" y="660" width="310" height="150" as="geometry"/>
                </mxCell>
                <mxCell id="21" value="MyDB_Ser" style="text;strokeColor=none;align=center;fillColor=none;verticalAlign=middle;whiteSpace=wrap;rounded=0;strokeWidth=4;html=1;fontColor=default;" parent="1" vertex="1">
                    <mxGeometry x="510.4999999999999" y="373" width="60" height="30" as="geometry"/>
                </mxCell>
                <mxCell id="24" value="Private endpoint" style="text;strokeColor=none;align=center;fillColor=none;verticalAlign=middle;whiteSpace=wrap;rounded=0;strokeWidth=4;html=1;fontColor=default;" parent="1" vertex="1">
                    <mxGeometry x="377.04999999999984" y="511" width="95.91" height="30" as="geometry"/>
                </mxCell>
                <mxCell id="27" value="Public endpoint &lt;br&gt;&lt;br&gt;MyDB_Ser.database.windows.net" style="text;whiteSpace=wrap;align=center;html=1;fontColor=default;" parent="1" vertex="1">
                    <mxGeometry x="325.40999999999997" y="291" width="210" height="40" as="geometry"/>
                </mxCell>
                <mxCell id="5" value="" style="aspect=fixed;points=[];align=center;image;fontSize=12;image=img/lib/azure2/databases/SQL_Server.svg;html=1;fontColor=default;" parent="1" vertex="1">
                    <mxGeometry x="322.40999999999997" y="682" width="68" height="68" as="geometry"/>
                </mxCell>
                <mxCell id="28" value="" style="edgeStyle=none;flowAnimation=1;html=1;fontColor=default;" parent="1" source="4" target="5" edge="1">
                    <mxGeometry relative="1" as="geometry"/>
                </mxCell>
                <mxCell id="32" value="" style="edgeStyle=none;flowAnimation=1;html=1;fontColor=default;" parent="1" source="4" target="13" edge="1">
                    <mxGeometry relative="1" as="geometry"/>
                </mxCell>
                <mxCell id="4" value="" style="aspect=fixed;points=[];align=center;image;fontSize=12;image=img/lib/azure2/compute/Virtual_Machine.svg;html=1;fontColor=default;" parent="1" vertex="1">
                    <mxGeometry x="139.5000000000001" y="684" width="69" height="64" as="geometry"/>
                </mxCell>
                <mxCell id="30" value="On Premise SQL" style="text;strokeColor=none;align=center;fillColor=none;verticalAlign=middle;whiteSpace=wrap;rounded=0;strokeWidth=4;html=1;fontColor=default;" parent="1" vertex="1">
                    <mxGeometry x="301.59000000000003" y="760" width="100" height="30" as="geometry"/>
                </mxCell>
                <mxCell id="31" value="Self-Hosted Intergration runtime" style="text;strokeColor=none;align=center;fillColor=none;verticalAlign=middle;whiteSpace=wrap;rounded=0;strokeWidth=4;html=1;fontColor=default;" parent="1" vertex="1">
                    <mxGeometry x="118.99999999999989" y="760" width="110" height="30" as="geometry"/>
                </mxCell>
                <mxCell id="39" value="" style="edgeStyle=none;flowAnimation=1;html=1;fontColor=default;" parent="1" source="13" edge="1" target="8">
                    <mxGeometry relative="1" as="geometry">
                        <mxPoint x="558.5" y="478" as="targetPoint"/>
                        <mxPoint x="506.09000000000015" y="478" as="sourcePoint"/>
                    </mxGeometry>
                </mxCell>
                <mxCell id="44" value="" style="aspect=fixed;points=[];align=center;image;fontSize=12;image=img/lib/azure2/databases/Azure_SQL.svg;html=1;fontColor=default;" vertex="1" parent="1">
                    <mxGeometry x="509.5" y="411" width="64" height="46" as="geometry"/>
                </mxCell>
                <mxCell id="45" value="Data Factory&lt;br&gt;Managed Virtual Network" style="text;strokeColor=none;align=center;fillColor=none;verticalAlign=middle;whiteSpace=wrap;rounded=0;strokeWidth=4;html=1;fontColor=default;" vertex="1" parent="1">
                    <mxGeometry x="101.38" y="400" width="141.25" height="30" as="geometry"/>
                </mxCell>
                <mxCell id="8" value="" style="aspect=fixed;points=[];align=center;image;fontSize=12;image=img/lib/azure2/networking/Private_Endpoint.svg;html=1;fontColor=default;" parent="1" vertex="1">
                    <mxGeometry x="399.90999999999997" y="457" width="50.18" height="46" as="geometry"/>
                </mxCell>
                <mxCell id="47" value="Data Factory Managed Virtual Network Connection to PaaS and On Premise" style="text;whiteSpace=wrap;align=center;fontSize=20;fontStyle=1;html=1;fontColor=default;" vertex="1" parent="1">
                    <mxGeometry y="200" width="750" height="40" as="geometry"/>
                </mxCell>
            </root>
        </mxGraphModel>
    </diagram>
</mxfile>